<svg width="512" height="512" viewBox="0 0 512 512" xmlns="http://www.w3.org/2000/svg">
  <!-- Fond circulaire bleu océan -->
  <circle cx="256" cy="256" r="256" fill="#0ea5e9"/>

  <!-- Vagues blanches en bas -->
  <path d="M 0 400 Q 64 380 128 400 T 256 400 T 384 400 T 512 400 L 512 512 L 0 512 Z" fill="#ffffff" opacity="0.3"/>
  <path d="M 0 430 Q 64 410 128 430 T 256 430 T 384 430 T 512 430 L 512 512 L 0 512 Z" fill="#ffffff" opacity="0.5"/>

  <!-- Coque du bateau -->
  <path d="M 150 350 L 256 320 L 362 350 L 340 380 L 172 380 Z" fill="#8b4513" stroke="#654321" stroke-width="3"/>

  <!-- Mât principal -->
  <rect x="253" y="120" width="6" height="200" fill="#654321"/>

  <!-- Grande voile principale (blanc avec bordure bleue) -->
  <path d="M 259 140 L 350 200 L 259 280 Z" fill="#ffffff" stroke="#0284c7" stroke-width="3"/>

  <!-- Petite voile avant -->
  <path d="M 253 160 L 180 200 L 253 260 Z" fill="#ffffff" stroke="#0284c7" stroke-width="3"/>

  <!-- Drapeau en haut du mât -->
  <path d="M 259 120 L 290 130 L 259 140 Z" fill="#ef4444"/>

  <!-- Reflets sur l'eau -->
  <ellipse cx="256" cy="390" rx="80" ry="10" fill="#ffffff" opacity="0.2"/>

  <!-- Hublot -->
  <circle cx="256" cy="345" r="8" fill="#0ea5e9" stroke="#ffffff" stroke-width="2"/>
</svg>
